<?xml version="1.0" standalone="no"?>
<!DOCTYPE svg PUBLIC "-//W3C//DTD SVG 20010904//EN"
 "http://www.w3.org/TR/2001/REC-SVG-20010904/DTD/svg10.dtd">
<svg version="1.0" xmlns="http://www.w3.org/2000/svg"
 width="1115.000000pt" height="627.000000pt" viewBox="0 0 1115.000000 627.000000"
 preserveAspectRatio="xMidYMid meet">
<metadata>
Created by potrace 1.16, written by Peter Selinger 2001-2019
</metadata>
<g transform="translate(0.000000,627.000000) scale(0.100000,-0.100000)"
fill="#000000" stroke="none">
<path d="M4382 6241 c-9 -15 -32 -40 -50 -55 -17 -15 -32 -33 -32 -39 0 -7
-17 -29 -36 -50 -28 -30 -41 -37 -59 -33 -20 5 -25 1 -31 -27 -4 -17 -7 -36
-5 -42 1 -5 -9 -32 -22 -60 -25 -49 -47 -127 -47 -164 0 -10 -9 -30 -21 -45
-13 -16 -22 -47 -26 -83 -3 -32 -11 -72 -19 -90 -8 -17 -14 -39 -14 -50 0 -10
-8 -38 -16 -63 -9 -25 -16 -62 -15 -82 1 -21 -5 -51 -14 -67 -8 -17 -15 -43
-15 -60 0 -16 -5 -33 -11 -37 -17 -10 -4 -299 14 -328 23 -35 28 -65 37 -206
15 -228 21 -283 30 -299 4 -9 11 -63 14 -121 4 -58 9 -120 12 -137 6 -39 -2
-40 -57 -14 -83 41 -171 -6 -199 -104 -20 -72 9 -232 62 -346 62 -131 98 -252
98 -328 0 -82 75 -286 132 -361 31 -39 85 -97 107 -112 21 -15 19 -5 41 -273
11 -143 52 -353 80 -410 11 -23 20 -47 20 -53 0 -7 5 -12 10 -12 6 0 10 -5 10
-10 0 -6 18 -40 40 -76 22 -36 40 -68 40 -71 0 -3 12 -18 28 -32 15 -15 52
-56 82 -91 30 -35 72 -81 93 -101 20 -20 37 -41 37 -47 0 -6 15 -22 33 -36 17
-15 37 -30 42 -34 6 -5 19 -21 30 -36 25 -35 72 -98 83 -111 15 -19 38 -99 34
-122 -4 -28 -66 -83 -93 -83 -23 0 -99 -37 -162 -80 -25 -17 -84 -52 -132 -78
-48 -26 -96 -52 -107 -59 -29 -16 -84 -56 -191 -141 -50 -40 -115 -83 -143
-97 -28 -13 -73 -42 -100 -65 -63 -53 -345 -193 -437 -219 -127 -35 -288 -99
-326 -129 -20 -16 -69 -47 -109 -68 -40 -22 -80 -44 -90 -49 -9 -6 -35 -21
-57 -33 -22 -12 -56 -32 -77 -44 -20 -13 -61 -37 -91 -55 -31 -18 -58 -37 -62
-43 -3 -5 -24 -10 -46 -10 -22 0 -38 -4 -35 -8 5 -9 -17 -31 -50 -50 -14 -8
404 -11 1534 -12 1332 0 1552 2 1552 14 0 8 -6 16 -12 19 -7 2 4 9 25 16 20 7
35 17 32 22 -4 5 0 9 7 9 21 0 51 41 54 73 3 48 17 51 28 5 4 -18 1 -32 -10
-43 -15 -15 -15 -17 1 -35 10 -11 24 -20 30 -20 18 0 66 40 60 50 -7 12 6 19
67 34 66 17 81 17 139 5 37 -8 54 -7 90 7 24 10 46 21 50 26 7 11 71 -14 87
-34 7 -9 22 -18 35 -20 15 -2 21 -9 19 -20 -2 -15 5 -18 48 -18 27 0 50 5 50
10 0 6 11 10 25 10 14 0 25 -4 25 -9 0 -5 -11 -12 -25 -15 -16 -4 -25 -13 -25
-26 0 -17 -7 -20 -40 -20 -33 0 -40 -3 -40 -20 0 -18 7 -20 56 -20 53 0 56 1
51 22 -8 28 9 58 31 58 10 0 27 7 38 15 28 21 42 18 37 -9 -5 -26 15 -46 27
-26 12 19 19 -10 9 -37 l-9 -23 2255 0 2255 0 0 436 0 437 -43 -5 c-87 -10
-213 -79 -304 -165 -18 -18 -38 -33 -45 -33 -6 0 -3 -9 7 -20 10 -11 24 -20
32 -20 27 0 93 41 120 75 28 34 28 34 40 12 43 -78 -17 -204 -113 -239 -27 -9
-36 -20 -44 -48 -5 -20 -16 -44 -24 -55 -13 -18 -14 -17 -20 25 -3 25 -5 54
-4 64 2 10 -2 21 -8 23 -6 2 -10 -7 -10 -19 1 -17 -5 -24 -21 -26 -21 -3 -23
-9 -25 -65 -1 -38 -4 -15 -8 58 l-6 120 -4 -125 c-2 -74 -5 -102 -7 -68 -2 32
-8 58 -13 58 -5 0 -25 16 -45 34 -57 54 -72 64 -42 28 15 -19 27 -37 27 -42 0
-4 -16 -11 -35 -14 -41 -8 -70 -45 -60 -76 5 -16 2 -20 -14 -20 -32 0 -69 21
-87 49 -21 31 -20 98 3 123 9 10 14 21 11 24 -3 3 -12 -1 -19 -9 -7 -8 -21
-12 -31 -9 -10 2 -18 0 -18 -5 0 -5 -19 -10 -42 -11 -24 -2 -48 -9 -54 -17 -7
-9 -28 -15 -56 -15 -56 0 -110 -18 -101 -33 3 -7 3 -9 -1 -6 -4 4 -27 1 -52
-7 -28 -8 -42 -9 -38 -3 4 7 0 9 -13 5 -16 -5 -161 56 -223 94 -8 5 -37 21
-63 35 -27 14 -72 42 -100 62 -29 20 -65 46 -82 57 -16 12 -32 24 -35 27 -9
10 -138 69 -152 69 -7 0 -42 10 -78 21 -74 23 -346 94 -435 113 -33 8 -85 27
-115 44 -34 18 -102 40 -175 57 -125 28 -270 72 -342 105 -23 11 -106 40 -185
66 -160 52 -321 126 -392 180 -56 42 -145 88 -205 104 -24 6 -51 15 -60 20
-23 13 -102 46 -129 55 -32 10 -62 77 -62 142 0 50 3 55 49 100 27 26 58 55
68 64 29 26 53 58 91 123 20 34 44 69 53 79 9 10 20 35 24 55 3 21 17 60 30
87 35 74 57 227 62 430 5 164 7 182 26 203 11 12 26 22 32 22 14 0 108 61 113
73 2 4 17 20 32 35 46 44 135 201 162 287 14 44 36 123 48 175 27 117 68 268
80 295 34 73 62 186 61 245 -1 78 -2 84 -25 133 -31 64 -67 74 -191 55 -18 -3
-20 3 -23 77 -2 44 4 121 13 172 11 66 15 148 13 295 -1 112 2 209 6 216 4 7
9 59 11 115 2 78 -1 109 -13 133 -14 30 -14 33 2 49 19 20 16 43 -14 110 -12
27 -17 57 -15 95 2 30 0 84 -5 119 -5 37 -5 71 0 81 6 12 2 21 -16 35 -19 14
-24 27 -24 65 0 42 -37 140 -60 160 -18 16 -40 58 -40 77 0 13 -4 23 -10 23
-5 0 -10 7 -10 15 0 9 -9 33 -20 55 -11 22 -20 54 -20 73 0 24 -10 45 -35 74
-19 23 -38 55 -41 72 l-6 31 -1579 0 -1579 0 -18 -29z m2198 -881 c7 -16 18
-30 24 -30 6 0 16 -10 21 -22 12 -28 65 -39 65 -14 0 9 -3 15 -7 15 -5 -1 -16
-1 -25 0 -21 1 -25 31 -4 31 7 0 19 -7 26 -15 7 -8 19 -15 26 -15 16 0 19 -26
4 -35 -17 -10 -11 -40 11 -55 11 -8 27 -27 35 -42 8 -16 21 -28 29 -28 12 0
15 -16 15 -80 0 -73 -2 -80 -20 -80 -11 0 -20 -1 -20 -3 0 -10 -22 -125 -27
-142 -6 -18 -7 -18 -14 5 l-7 25 -7 -22 c-5 -16 -15 -23 -31 -23 -13 0 -24 5
-24 10 0 18 -29 10 -44 -12 -32 -46 -11 -238 25 -238 14 0 23 -15 34 -55 11
-36 23 -56 36 -60 11 -4 16 -11 13 -17 -5 -7 -2 -9 8 -6 29 12 49 -28 43 -85
-7 -74 -19 -112 -36 -114 -71 -9 -92 -15 -78 -24 9 -5 -34 -9 -115 -9 -121 0
-133 -2 -190 -29 -34 -16 -80 -32 -103 -36 -29 -4 -49 -15 -65 -36 -13 -16
-31 -29 -40 -29 -9 0 -24 -8 -34 -17 -10 -10 -20 -17 -23 -16 -11 5 -41 -8
-41 -18 0 -5 -7 -9 -16 -9 -9 0 -28 -9 -43 -19 -15 -11 -56 -25 -91 -31 -36
-6 -79 -16 -96 -21 -17 -5 -37 -9 -45 -9 -8 0 -20 -9 -27 -20 -7 -11 -17 -20
-23 -20 -12 0 -82 53 -122 93 -15 15 -33 27 -40 27 -22 1 -42 24 -56 65 -17
50 -48 85 -76 85 -11 0 -39 9 -60 20 -29 15 -56 20 -98 19 -34 -2 -62 2 -69 9
-7 7 -24 12 -39 12 -15 0 -34 6 -41 13 -24 22 -82 38 -163 44 -111 8 -114 10
-108 80 2 32 7 65 10 73 3 8 7 23 8 32 2 25 5 27 63 40 38 10 52 17 52 30 0
10 6 18 13 18 16 0 87 74 87 90 0 5 16 10 35 10 53 0 45 24 -19 53 -29 13 -36
21 -26 27 10 6 8 14 -9 38 -27 39 -27 40 10 44 l31 3 -21 27 c-12 14 -21 40
-21 58 0 20 -9 39 -25 55 -14 12 -30 38 -35 56 -8 28 -6 37 12 56 12 13 27 23
35 23 7 0 13 4 13 9 0 5 19 12 43 17 l42 8 -46 4 c-38 2 -46 6 -42 20 4 18 83
67 83 51 0 -19 28 -8 45 17 16 24 21 26 66 20 31 -4 49 -3 49 4 0 11 39 14 64
4 9 -3 16 -16 16 -29 0 -18 13 -30 61 -54 76 -39 116 -41 125 -6 3 14 10 25
15 25 5 0 11 -11 15 -25 5 -19 13 -25 35 -25 27 0 29 3 29 40 l0 40 -41 0
c-26 0 -38 4 -34 11 4 6 19 7 37 4 24 -6 30 -3 35 14 4 15 13 21 36 21 16 0
35 7 41 15 6 9 40 20 80 26 38 6 83 20 100 30 27 17 43 19 126 13 52 -4 102
-12 110 -19 31 -26 100 -22 146 7 6 4 55 10 108 14 53 4 96 11 96 15 0 5 20 9
44 9 39 0 45 -3 56 -30z m-700 -1530 c16 -26 32 -40 46 -40 18 0 22 -8 27 -42
4 -27 14 -49 27 -60 15 -12 20 -23 15 -35 -4 -10 -7 -35 -5 -57 1 -21 -3 -42
-9 -45 -6 -4 -15 -54 -21 -112 -13 -127 -19 -159 -31 -159 -5 0 -9 -23 -9 -52
0 -53 -28 -158 -42 -158 -16 0 -8 -69 9 -78 15 -9 15 -13 0 -54 -9 -24 -17
-56 -17 -70 0 -30 29 -98 42 -98 4 0 8 -11 8 -24 0 -13 7 -29 15 -36 8 -6 17
-22 21 -33 4 -12 14 -27 23 -34 14 -10 14 -13 -2 -30 -10 -12 -17 -36 -17 -61
0 -35 -3 -42 -20 -42 -13 0 -20 -7 -20 -20 0 -11 -4 -20 -10 -20 -5 0 -12 -11
-16 -25 -4 -17 -13 -25 -28 -25 -17 0 -18 -2 -6 -10 13 -9 13 -10 0 -11 -27
-2 -65 3 -70 10 -3 3 -29 7 -58 8 -85 2 -97 8 -108 50 -7 28 -15 39 -34 44
-70 17 -98 43 -65 61 8 5 15 14 15 20 0 6 11 21 25 34 14 13 28 37 31 54 4 16
11 30 16 30 5 0 12 8 15 18 4 9 13 22 20 27 18 14 30 144 14 154 -9 6 -9 14 0
37 16 41 24 204 10 204 -7 0 -11 27 -11 74 0 41 -5 87 -11 103 -6 15 -13 66
-16 113 -6 103 -6 100 1 180 4 36 9 93 12 127 3 38 11 67 21 75 32 27 90 46
138 47 48 1 51 -1 75 -39z m-652 -489 c10 -6 8 -10 -10 -16 l-23 -8 23 -4 c24
-5 25 -8 26 -152 1 -58 5 -86 14 -88 7 -3 12 -21 12 -44 0 -34 -5 -42 -32 -59
-18 -11 -32 -23 -30 -27 1 -5 -6 -9 -18 -11 -11 -2 -20 -10 -20 -17 0 -8 -10
-17 -22 -20 -25 -8 -81 -63 -91 -89 -4 -9 -12 -15 -19 -14 -7 2 -17 -7 -23
-19 -5 -13 -14 -23 -19 -23 -17 0 -76 -51 -76 -66 0 -11 -6 -13 -20 -9 -15 5
-20 2 -20 -12 0 -14 -14 -24 -49 -36 -41 -15 -52 -16 -77 -5 -16 7 -31 15 -34
19 -3 3 -23 9 -44 13 -23 5 -35 11 -28 15 9 5 8 12 -3 27 -8 10 -15 27 -15 37
0 27 -30 21 -30 -7 0 -14 -4 -27 -9 -30 -10 -7 -31 61 -31 103 0 26 4 31 25
31 14 0 25 4 25 10 0 5 -11 12 -25 16 -21 5 -25 12 -25 44 0 21 7 43 15 50 17
14 20 40 5 40 -5 0 -12 11 -16 25 -3 14 -14 25 -23 25 -9 1 -27 7 -41 15 -19
11 -21 14 -7 15 13 0 17 9 17 40 0 22 5 40 10 40 6 0 10 6 10 13 0 22 39 47
75 47 28 0 35 4 35 20 0 21 15 27 25 10 4 -6 22 -9 41 -8 24 1 38 -4 48 -17
13 -19 15 -18 72 11 56 29 147 56 240 69 22 3 63 17 90 30 56 28 55 28 72 16z
m1301 -86 c23 -8 65 -17 94 -21 29 -4 65 -13 81 -21 40 -21 191 -19 223 2 27
18 77 16 79 -2 3 -26 5 -28 14 -13 8 12 10 12 16 -3 7 -18 60 -24 66 -7 4 13
89 -9 111 -29 17 -17 15 -51 -4 -51 -5 0 -9 -14 -9 -32 0 -17 -8 -40 -17 -50
-14 -15 -16 -39 -15 -148 l2 -130 -29 0 c-33 0 -71 -39 -71 -72 0 -10 -7 -21
-15 -24 -8 -4 -15 -15 -15 -25 0 -12 -7 -19 -20 -19 -11 0 -20 -5 -20 -11 0
-22 -169 17 -230 53 -8 5 -23 11 -32 14 -10 4 -18 9 -18 13 0 10 -76 52 -82
45 -3 -3 -15 11 -27 30 -12 19 -35 39 -51 45 -17 5 -30 15 -30 20 0 6 -11 11
-25 11 -21 0 -25 5 -25 28 0 23 -6 29 -40 40 -22 6 -47 12 -56 12 -13 0 -15 6
-9 28 4 15 9 51 12 80 4 48 3 52 -16 52 -15 0 -21 6 -21 21 0 17 3 19 14 10
12 -10 16 -8 21 11 4 13 14 31 23 41 11 13 12 17 2 17 -9 0 -8 6 5 20 9 10 18
33 19 50 1 25 5 30 27 30 15 0 45 -7 68 -15z"/>
<path d="M0 4795 c0 -830 3 -921 26 -860 4 8 17 15 30 15 13 0 24 6 24 13 0 7
18 26 40 43 22 16 40 34 40 39 0 6 16 19 35 29 46 25 164 144 171 173 5 19 13
23 43 23 33 0 37 3 49 38 8 20 16 49 19 65 5 24 10 27 44 27 36 0 39 2 39 28
0 24 7 32 40 47 41 18 50 30 28 37 -9 3 -12 40 -11 127 l0 122 -30 30 c-24 25
-28 33 -16 40 10 6 10 9 2 9 -9 0 -13 20 -13 65 l0 65 -40 0 c-36 0 -40 3 -40
25 0 23 -4 25 -40 25 l-40 0 0 65 c0 58 -2 65 -20 65 -17 0 -20 7 -20 50 0 37
-5 55 -20 70 -11 11 -20 25 -20 30 0 6 -5 10 -10 10 -6 0 -22 12 -35 28 -20
22 -26 25 -34 12 -8 -12 -13 -11 -31 5 -11 10 -19 24 -16 31 3 7 -4 24 -15 37
-10 14 -19 30 -19 36 0 19 -17 12 -23 -9 -3 -11 -10 -20 -16 -20 -15 0 -14 37
1 43 21 7 -17 77 -42 77 -16 0 -20 7 -20 35 0 26 -7 43 -26 60 -15 14 -29 25
-30 25 -2 0 -4 -394 -4 -875z"/>
<path d="M0 818 l0 -818 1210 0 c1307 0 1268 -2 1160 51 -30 15 -49 31 -50 42
0 10 -8 17 -19 17 -10 0 -21 7 -25 15 -3 8 -15 15 -26 15 -31 0 -120 31 -120
41 0 5 -11 9 -25 9 -14 0 -25 4 -25 9 0 11 -58 71 -69 71 -5 0 -11 4 -13 9 -5
14 -116 71 -138 71 -11 0 -20 5 -20 10 0 10 -118 70 -138 70 -6 0 -15 6 -19
14 -12 20 -72 48 -85 40 -6 -4 -16 -1 -22 7 -13 17 -118 69 -139 69 -8 0 -24
14 -37 30 -13 17 -30 30 -38 30 -8 0 -12 6 -8 15 6 17 -19 21 -29 5 -11 -18
-55 -5 -79 23 -13 15 -28 27 -35 27 -6 0 -11 5 -11 11 0 5 -8 9 -17 8 -33 -3
-42 1 -37 16 5 11 2 13 -10 9 -15 -6 -58 20 -106 63 -14 13 -30 23 -37 23 -6
0 -13 3 -15 8 -2 4 -25 23 -53 41 -27 19 -52 37 -55 41 -3 3 -23 14 -45 25
-22 11 -52 28 -67 38 -31 20 -248 129 -343 171 -33 15 -84 39 -114 54 -55 27
-58 29 -88 31 -15 1 -15 2 -1 14 11 8 13 18 8 32 -5 11 -9 14 -9 8 -1 -19 -31
-16 -31 3 0 10 -6 14 -14 11 -10 -4 -13 -1 -9 8 7 19 -34 103 -58 118 -11 7
-19 23 -19 37 0 14 -7 34 -15 44 -8 11 -15 27 -15 35 0 9 -11 34 -25 56 l-24
40 -1 -817z"/>
</g>
</svg>
